<svg width="70" height="57" viewBox="0 0 70 57"  fill="none" xmlns="http://www.w3.org/2000/svg">
<path d="M60.1633 27.3324C60.1633 26.8413 59.9533 26.3701 59.5798 26.0225C59.206 25.6749 58.6989 25.4792 58.17 25.4783C58.6985 25.4783 59.2057 25.2833 59.5795 24.9362C59.9533 24.5891 60.1633 24.1183 60.1633 23.6274C60.1643 24.1186 60.375 24.5894 60.7492 24.9364C61.1237 25.2834 61.6312 25.4783 62.16 25.4783C61.6308 25.4792 61.1233 25.6748 60.7492 26.0223C60.375 26.3699 60.1643 26.841 60.1633 27.3324Z" stroke="white" stroke-width="2" stroke-linejoin="round"/>
<path d="M56.1645 18.5249C56.1645 18.0336 55.9517 17.5624 55.573 17.215C55.1943 16.8676 54.6805 16.6724 54.145 16.6724C54.6805 16.6724 55.1943 16.4773 55.573 16.1299C55.9517 15.7825 56.1645 15.3112 56.1645 14.8199C56.1645 15.309 56.3752 15.7783 56.7511 16.1253C57.1267 16.4724 57.637 16.669 58.17 16.6724C57.6345 16.6724 57.1207 16.8676 56.742 17.215C56.3633 17.5624 56.1505 18.0336 56.1505 18.5249H56.1645Z" stroke="white" stroke-width="2" stroke-linejoin="round"/>
<path d="M11.4505 46.1519C8.62311 44.4762 6.68306 41.5665 6.74382 38.3093" stroke="white" stroke-width="2" stroke-linejoin="round"/>
<path d="M11.4275 46.1663C12.9325 47.1032 17.0975 48.9775 21.7175 48.9775" stroke="white" stroke-width="2"/>
<path d="M6.74377 38.3094C6.74377 33.3512 10.8263 29.2827 16.0458 28.8317C16.039 28.6907 16.0222 28.5529 16.0222 28.412C16.0222 24.9542 19.0453 22.151 22.7701 22.151C24.5786 22.151 26.2183 22.815 27.4262 23.8893C29.5046 18.7621 34.8219 15.1007 41.0739 15.1007C49.1309 15.1007 55.663 21.1644 55.663 28.6406V28.6469C60.0523 29.9718 63.224 33.7961 63.224 38.3094C63.224 41.0199 62.082 43.4827 60.22 45.305" stroke="white" stroke-width="2" stroke-linejoin="round"/>
<path d="M23.8717 38.5567C23.197 38.7963 22.4432 38.9159 21.6103 38.9159C20.2027 38.9159 19.1366 38.5684 18.4119 37.8732C17.6873 37.1706 17.325 36.1433 17.325 34.7916C17.325 33.4555 17.7039 32.4207 18.4619 31.687C19.2199 30.9533 20.286 30.5864 21.6603 30.5864C22.3933 30.5864 23.0888 30.6946 23.7468 30.9108V32.2778C22.9888 32.1234 22.3683 32.0461 21.8852 32.0461C21.019 32.0461 20.3693 32.2585 19.9362 32.6833C19.5114 33.1081 19.299 33.7568 19.299 34.6294V34.8959C19.299 35.7611 19.5072 36.4059 19.9237 36.8307C20.3401 37.2476 20.9773 37.4563 21.8352 37.4563C22.3183 37.4563 22.9971 37.3676 23.8717 37.1898V38.5567Z" fill="white"/>
<path d="M27.9477 38.6497C27.5979 38.781 27.2231 38.8466 26.8232 38.8466C25.6988 38.8466 25.1366 38.2632 25.1366 37.0971V30.1925H26.9607V36.958C26.9607 37.1745 26.9982 37.3289 27.0731 37.4215C27.1564 37.5063 27.2897 37.5489 27.4729 37.5489C27.5895 37.5489 27.7478 37.5375 27.9477 37.5141V38.6497Z" fill="white"/>
<path d="M31.9135 38.9393C30.9223 38.9393 30.1477 38.665 29.5897 38.1167C29.0316 37.5606 28.7526 36.7881 28.7526 35.7998C28.7526 34.8189 29.0316 34.0542 29.5897 33.5059C30.1477 32.9498 30.9223 32.6716 31.9135 32.6716C32.9046 32.6716 33.6793 32.9498 34.2373 33.5059C34.7954 34.0542 35.0745 34.8189 35.0745 35.7998C35.0745 36.7881 34.7954 37.5606 34.2373 38.1167C33.6793 38.665 32.9046 38.9393 31.9135 38.9393ZM31.9135 37.6415C32.7881 37.6415 33.2254 37.0276 33.2254 35.7998C33.2254 34.5794 32.7881 33.9694 31.9135 33.9694C31.0389 33.9694 30.6016 34.5794 30.6016 35.7998C30.6016 37.0276 31.0389 37.6415 31.9135 37.6415Z" fill="white"/>
<path d="M40.7436 38.7653L40.5686 38.1397C39.8273 38.6727 39.0527 38.9392 38.2449 38.9392C37.6783 38.9392 37.2369 38.7845 36.9205 38.4758C36.6041 38.1592 36.4456 37.7266 36.4456 37.1784V32.8455H38.2698V36.7032C38.2698 37.3288 38.5613 37.6415 39.1444 37.6415C39.5774 37.6415 40.0023 37.518 40.4188 37.271V32.8455H42.243V38.7653H40.7436Z" fill="white"/>
<path d="M48.2972 38.7654L48.1474 38.2441C47.6311 38.6766 47.019 38.8928 46.3109 38.8928C45.7859 38.8928 45.3239 38.7732 44.9239 38.5336C44.5242 38.2866 44.212 37.9311 43.9869 37.468C43.7703 37.0045 43.6621 36.4598 43.6621 35.8345C43.6621 34.8767 43.9078 34.112 44.3992 33.5407C44.8906 32.9612 45.5402 32.6716 46.3484 32.6716C47.0064 32.6716 47.5769 32.8455 48.0599 33.1929V30.1925H49.8841V38.7654H48.2972ZM46.9105 37.6184C47.3102 37.6184 47.6934 37.5102 48.0599 37.2941V34.2355C47.7018 34.0425 47.2895 33.9459 46.823 33.9459C46.3816 33.9459 46.0526 34.1006 45.836 34.4094C45.6197 34.7107 45.5112 35.1702 45.5112 35.788C45.5112 36.4059 45.6235 36.8654 45.8486 37.1667C46.0817 37.468 46.4359 37.6184 46.9105 37.6184Z" fill="white"/>
<path d="M31.6833 49.2985C31.0087 49.5381 30.2549 49.6577 29.422 49.6577C28.0143 49.6577 26.9482 49.3102 26.2236 48.6151C25.4989 47.9121 25.1366 46.8851 25.1366 45.5334C25.1366 44.1973 25.5156 43.1625 26.2735 42.4287C27.0315 41.6948 28.0976 41.3282 29.4719 41.3282C30.2049 41.3282 30.9004 41.4361 31.5584 41.6526V43.0195C30.8004 42.8652 30.1799 42.7878 29.6968 42.7878C28.8306 42.7878 28.1809 43.0004 27.7478 43.4251C27.323 43.8499 27.1106 44.4986 27.1106 45.3712V45.6377C27.1106 46.5026 27.3188 47.1477 27.7353 47.5725C28.1517 47.9894 28.789 48.1981 29.6468 48.1981C30.1299 48.1981 30.8088 48.109 31.6833 47.9316V49.2985Z" fill="white"/>
<path d="M35.7592 49.3913C35.4095 49.5226 35.0347 49.5882 34.6348 49.5882C33.5103 49.5882 32.9481 49.0052 32.9481 47.8391V40.9344H34.7722V47.7C34.7722 47.9161 34.8097 48.0708 34.8846 48.1634C34.9679 48.2482 35.1012 48.2908 35.2846 48.2908C35.4011 48.2908 35.5593 48.2791 35.7592 48.256V49.3913Z" fill="white"/>
<path d="M41.2591 49.5073L41.0841 48.8817C40.3428 49.4143 39.5682 49.6808 38.7601 49.6808C38.1938 49.6808 37.7524 49.5265 37.4357 49.2177C37.1193 48.9008 36.9611 48.4683 36.9611 47.92V43.5874H38.7853V47.4452C38.7853 48.0708 39.0768 48.3834 39.6596 48.3834C40.0929 48.3834 40.5178 48.2599 40.9339 48.0126V43.5874H42.7581V49.5073H41.2591Z" fill="white"/>
<path d="M44.5024 49.5073V40.9344H46.3263V44.0392C46.5678 43.8461 46.8513 43.6953 47.1761 43.5874C47.5009 43.4714 47.8215 43.4135 48.1379 43.4135C48.946 43.4135 49.583 43.6878 50.0496 44.2361C50.5242 44.7844 50.7618 45.5257 50.7618 46.4604C50.7618 47.0704 50.6533 47.6148 50.4367 48.0939C50.2204 48.5726 49.9078 48.9512 49.4997 49.2291C49.0916 49.4995 48.6212 49.6347 48.0882 49.6347C47.7049 49.6347 47.3469 49.5729 47.0137 49.4491C46.6805 49.3256 46.4015 49.1521 46.1765 48.9278L46.0141 49.5073H44.5024ZM47.5509 44.6879C47.1176 44.6879 46.7095 44.7922 46.3263 45.0005V48.0474C46.6927 48.256 47.1012 48.3604 47.5509 48.3604C48.0171 48.3604 48.3587 48.2135 48.5754 47.92C48.8001 47.6265 48.9128 47.1631 48.9128 46.53C48.9128 45.8887 48.8043 45.4217 48.5876 45.1279C48.3713 44.8344 48.0255 44.6879 47.5509 44.6879Z" fill="white"/>
<path d="M54.9003 47.8738C54.9003 47.7191 54.8503 47.5995 54.7502 47.5146C54.6585 47.4295 54.467 47.3369 54.1755 47.2364L53.2011 46.8773C52.6929 46.6921 52.3264 46.4642 52.1014 46.1938C51.8767 45.9234 51.7643 45.5799 51.7643 45.1626C51.7643 44.6374 51.989 44.2165 52.4388 43.9C52.8969 43.5756 53.5049 43.4135 54.263 43.4135C54.9626 43.4135 55.608 43.5409 56.1995 43.7957V44.9195C55.5664 44.7417 54.9752 44.653 54.4254 44.653C54.0838 44.653 53.8339 44.6917 53.6757 44.7687C53.5175 44.8461 53.4384 44.9696 53.4384 45.1395C53.4384 45.2708 53.4842 45.3791 53.5759 45.4639C53.6757 45.5412 53.8797 45.6378 54.1881 45.7535L55.1376 46.1126C55.6539 46.3056 56.0203 46.5299 56.237 46.7847C56.462 47.0395 56.5744 47.3716 56.5744 47.7808C56.5744 48.3525 56.3371 48.8159 55.8621 49.1712C55.3956 49.5186 54.7792 49.6925 54.0131 49.6925C53.1552 49.6925 52.3971 49.5342 51.7391 49.2176V48.0938C52.5637 48.3333 53.3176 48.4529 54.0005 48.4529C54.6004 48.4529 54.9003 48.2599 54.9003 47.8738Z" fill="white"/>
<path d="M27.755 12.805C27.755 12.3137 27.5485 11.8425 27.181 11.4951C26.8134 11.1476 26.3149 10.9525 25.795 10.9525C26.0524 10.9525 26.3073 10.9046 26.5451 10.8115C26.7829 10.7184 26.999 10.5819 27.181 10.4099C27.363 10.2379 27.5073 10.0337 27.6058 9.8089C27.7044 9.58413 27.755 9.34324 27.755 9.09998C27.755 9.34324 27.8058 9.58413 27.9042 9.8089C28.0027 10.0337 28.1471 10.2379 28.3291 10.4099C28.5111 10.5819 28.7272 10.7184 28.965 10.8115C29.2028 10.9046 29.4577 10.9525 29.715 10.9525C29.1952 10.9525 28.6967 11.1476 28.3291 11.4951C27.9615 11.8425 27.755 12.3137 27.755 12.805Z" stroke="white" stroke-width="2" stroke-linejoin="round"/>
<path d="M11.0792 27.3292C11.0774 26.8386 10.868 26.3687 10.4971 26.0223C10.1261 25.676 9.62372 25.4816 9.09998 25.4816C9.62491 25.4816 10.1283 25.2862 10.4995 24.9385C10.8707 24.5908 11.0792 24.1192 11.0792 23.6274C11.0787 23.8708 11.1295 24.1118 11.2286 24.3367C11.3277 24.5617 11.4732 24.7661 11.6567 24.9383C11.8402 25.1105 12.0581 25.2471 12.2981 25.3404C12.538 25.4336 12.7952 25.4816 13.055 25.4816C12.531 25.4816 12.0284 25.6766 11.6579 26.0237C11.2874 26.3708 11.0792 26.8416 11.0792 27.3324V27.3292Z" stroke="white" stroke-width="2" stroke-linejoin="round"/>
<path d="M20.139 16.978C20.139 17.0982 20.153 17.1957 20.1775 17.2672C20.2055 17.3387 20.2405 17.4167 20.2895 17.5012C20.307 17.5272 20.314 17.5532 20.314 17.576C20.314 17.6085 20.293 17.641 20.2475 17.6735L20.027 17.81C19.9955 17.8295 19.964 17.8392 19.936 17.8392C19.901 17.8392 19.866 17.823 19.831 17.7937C19.782 17.745 19.74 17.693 19.705 17.641C19.67 17.5857 19.635 17.524 19.5965 17.4492C19.3235 17.7482 18.9805 17.8977 18.5675 17.8977C18.2735 17.8977 18.039 17.8197 17.8675 17.6637C17.696 17.5077 17.6085 17.2997 17.6085 17.0397C17.6085 16.7635 17.7135 16.5392 17.927 16.3702C18.1405 16.2012 18.424 16.1167 18.7845 16.1167C18.9035 16.1167 19.026 16.1265 19.1555 16.1427C19.285 16.159 19.418 16.185 19.558 16.2142V15.977C19.558 15.73 19.502 15.5577 19.3935 15.457C19.2815 15.3562 19.0925 15.3075 18.823 15.3075C18.7005 15.3075 18.5745 15.3205 18.445 15.3497C18.3155 15.379 18.1895 15.4147 18.067 15.4602C18.011 15.483 17.969 15.496 17.9445 15.5025C17.92 15.509 17.9025 15.5122 17.8885 15.5122C17.8395 15.5122 17.815 15.4797 17.815 15.4115V15.2522C17.815 15.2002 17.822 15.1612 17.8395 15.1385C17.857 15.1157 17.8885 15.093 17.9375 15.0702C18.06 15.0117 18.207 14.963 18.3785 14.924C18.55 14.8817 18.732 14.8622 18.9245 14.8622C19.341 14.8622 19.6455 14.95 19.8415 15.1255C20.034 15.301 20.132 15.5675 20.132 15.925V16.978H20.139ZM18.718 17.472C18.8335 17.472 18.9525 17.4525 19.0785 17.4135C19.2045 17.3745 19.3165 17.303 19.411 17.2055C19.467 17.1437 19.509 17.0755 19.53 16.9975C19.551 16.9195 19.565 16.8252 19.565 16.7147V16.5782C19.4635 16.5555 19.355 16.536 19.243 16.523C19.131 16.51 19.0225 16.5035 18.914 16.5035C18.6795 16.5035 18.508 16.5457 18.3925 16.6335C18.277 16.7212 18.221 16.8447 18.221 17.0072C18.221 17.16 18.263 17.2737 18.3505 17.3517C18.4345 17.433 18.557 17.472 18.718 17.472ZM21.5285 17.823C21.4655 17.823 21.4235 17.8132 21.3955 17.7905C21.3675 17.771 21.343 17.7255 21.322 17.6637L20.4995 15.1515C20.4785 15.0865 20.468 15.0442 20.468 15.0215C20.468 14.9695 20.496 14.9402 20.552 14.9402H20.895C20.9615 14.9402 21.007 14.95 21.0315 14.9727C21.0595 14.9922 21.0805 15.0377 21.1015 15.0995L21.6895 17.251L22.2355 15.0995C22.253 15.0345 22.274 14.9922 22.302 14.9727C22.33 14.9532 22.379 14.9402 22.442 14.9402H22.722C22.7885 14.9402 22.834 14.95 22.862 14.9727C22.89 14.9922 22.9145 15.0377 22.9285 15.0995L23.4815 17.277L24.087 15.0995C24.108 15.0345 24.1325 14.9922 24.157 14.9727C24.185 14.9532 24.2305 14.9402 24.2935 14.9402H24.619C24.675 14.9402 24.7065 14.9662 24.7065 15.0215C24.7065 15.0377 24.703 15.054 24.6995 15.0735C24.696 15.093 24.689 15.119 24.675 15.1547L23.8315 17.667C23.8105 17.732 23.786 17.7742 23.758 17.7937C23.73 17.8132 23.6845 17.8262 23.625 17.8262H23.324C23.2575 17.8262 23.212 17.8165 23.184 17.7937C23.156 17.771 23.1315 17.7287 23.1175 17.6637L22.575 15.5675L22.036 17.6605C22.0185 17.7255 21.9975 17.7677 21.9695 17.7905C21.9415 17.8132 21.8925 17.823 21.8295 17.823H21.5285ZM26.026 17.9107C25.844 17.9107 25.662 17.8912 25.487 17.8522C25.312 17.8132 25.1755 17.771 25.0845 17.7222C25.0285 17.693 24.99 17.6605 24.976 17.6312C24.962 17.602 24.955 17.5695 24.955 17.5402V17.3745C24.955 17.3062 24.983 17.2737 25.0355 17.2737C25.0565 17.2737 25.0775 17.277 25.0985 17.2835C25.1195 17.29 25.151 17.303 25.186 17.316C25.305 17.3647 25.4345 17.4037 25.571 17.4297C25.711 17.4557 25.8475 17.4687 25.9875 17.4687C26.208 17.4687 26.3795 17.433 26.4985 17.3615C26.6175 17.29 26.6805 17.186 26.6805 17.0527C26.6805 16.9617 26.649 16.887 26.586 16.8252C26.523 16.7635 26.404 16.7082 26.2325 16.6562L25.725 16.51C25.4695 16.4352 25.2805 16.3247 25.165 16.1785C25.0495 16.0355 24.99 15.8762 24.99 15.7072C24.99 15.5707 25.0215 15.4505 25.0845 15.3465C25.1475 15.2425 25.2315 15.1515 25.3365 15.08C25.4415 15.0052 25.5605 14.95 25.7005 14.911C25.8405 14.872 25.9875 14.8557 26.1415 14.8557C26.2185 14.8557 26.299 14.859 26.376 14.8687C26.4565 14.8785 26.53 14.8915 26.6035 14.9045C26.6735 14.9207 26.74 14.937 26.803 14.9565C26.866 14.976 26.915 14.9955 26.95 15.015C26.999 15.041 27.034 15.067 27.055 15.0962C27.076 15.1222 27.0865 15.158 27.0865 15.2035V15.3562C27.0865 15.4245 27.0585 15.4602 27.006 15.4602C26.978 15.4602 26.9325 15.4472 26.873 15.4212C26.6735 15.3367 26.4495 15.2945 26.201 15.2945C26.0015 15.2945 25.844 15.3237 25.7355 15.3855C25.627 15.4472 25.571 15.5415 25.571 15.6747C25.571 15.7657 25.606 15.8437 25.676 15.9055C25.746 15.9672 25.8755 16.029 26.061 16.0842L26.558 16.2305C26.81 16.3052 26.992 16.4092 27.1005 16.5425C27.209 16.6757 27.2615 16.8285 27.2615 16.9975C27.2615 17.1372 27.23 17.264 27.1705 17.3745C27.1075 17.485 27.0235 17.5825 26.915 17.6605C26.8065 17.7417 26.677 17.8002 26.5265 17.8425C26.369 17.888 26.2045 17.9107 26.026 17.9107Z" fill="white"/>
<path d="M26.6875 19.4902C25.536 20.28 23.863 20.6992 22.4245 20.6992C20.4085 20.6992 18.592 20.007 17.22 18.8565C17.1115 18.7655 17.2095 18.642 17.339 18.7135C18.823 19.513 20.6535 19.9972 22.547 19.9972C23.8245 19.9972 25.228 19.7502 26.5195 19.2432C26.712 19.162 26.8765 19.3602 26.6875 19.4902Z" fill="white"/>
<path d="M27.167 18.9833C27.02 18.8078 26.194 18.8988 25.8195 18.941C25.7075 18.954 25.69 18.863 25.7915 18.7948C26.4495 18.3658 27.531 18.4893 27.657 18.6323C27.783 18.7785 27.622 19.7828 27.006 20.2638C26.9115 20.3385 26.8205 20.2995 26.8625 20.202C27.0025 19.8803 27.314 19.1555 27.167 18.9833Z" fill="white"/>
</svg>
