<svg width="73" height="39" viewBox="0 0 73 39" fill="none" xmlns="http://www.w3.org/2000/svg">
<rect width="73" height="39" rx="5" fill="#FE9A07"/>
<path d="M32.5078 28.0565C32.6671 28.1993 32.795 28.3716 32.8836 28.5629C32.9723 28.7543 33.02 28.9609 33.0238 29.1703C33.0277 29.3798 32.9876 29.5878 32.906 29.7821C32.8244 29.9763 32.703 30.1528 32.5489 30.3009C32.3949 30.4491 32.2114 30.5658 32.0094 30.6443C31.8074 30.7228 31.5911 30.7613 31.3732 30.7576C31.1554 30.7539 30.9406 30.7081 30.7416 30.6228C30.5426 30.5375 30.3635 30.4146 30.215 30.2613L21.5632 21.9413C21.2594 21.6488 21.0887 21.2523 21.0887 20.8389C21.0887 20.4255 21.2594 20.029 21.5632 19.7365L30.215 11.4165C30.3635 11.2633 30.5426 11.1403 30.7416 11.0551C30.9406 10.9698 31.1554 10.924 31.3732 10.9203C31.5911 10.9166 31.8074 10.9551 32.0094 11.0336C32.2114 11.112 32.3949 11.2288 32.5489 11.3769C32.703 11.5251 32.8244 11.7015 32.906 11.8958C32.9876 12.09 33.0277 12.2981 33.0238 12.5075C33.02 12.717 32.9723 12.9236 32.8836 13.1149C32.795 13.3063 32.6671 13.4785 32.5078 13.6213L26.6245 19.2789H47.5836C48.0139 19.2789 48.4265 19.4433 48.7307 19.7358C49.0349 20.0284 49.2058 20.4252 49.2058 20.8389C49.2058 21.2527 49.0349 21.6495 48.7307 21.942C48.4265 22.2346 48.0139 22.3989 47.5836 22.3989H26.6245L32.5078 28.0565Z" fill="white"/>
</svg>
