<svg width="18" height="13" viewBox="0 0 18 13" fill="none" xmlns="http://www.w3.org/2000/svg">
<path d="M7.03912 10.9849C7.13737 11.0765 7.21617 11.1869 7.27083 11.3096C7.32548 11.4322 7.35487 11.5646 7.35724 11.6989C7.35961 11.8332 7.33491 11.9666 7.28462 12.0911C7.23432 12.2156 7.15946 12.3287 7.0645 12.4237C6.96955 12.5186 6.85643 12.5935 6.73192 12.6438C6.6074 12.6941 6.47403 12.7188 6.33976 12.7164C6.20549 12.714 6.07307 12.6846 5.9504 12.63C5.82774 12.5753 5.71734 12.4965 5.62579 12.3983L0.292453 7.06494C0.105186 6.87744 0 6.62328 0 6.35827C0 6.09327 0.105186 5.83911 0.292453 5.65161L5.62579 0.318274C5.71734 0.220024 5.82774 0.141223 5.9504 0.0865669C6.07307 0.0319109 6.20549 0.00252247 6.33976 0.000153542C6.47403 -0.00221539 6.6074 0.0224829 6.73192 0.0727777C6.85643 0.123073 6.96955 0.197932 7.0645 0.292891C7.15946 0.387849 7.23432 0.500961 7.28462 0.625479C7.33491 0.749996 7.35961 0.883367 7.35724 1.01764C7.35487 1.15191 7.32548 1.28433 7.27083 1.40699C7.21617 1.52966 7.13737 1.64006 7.03912 1.73161L3.41245 5.35827H16.3325C16.5977 5.35827 16.852 5.46363 17.0396 5.65117C17.2271 5.83871 17.3325 6.09306 17.3325 6.35827C17.3325 6.62349 17.2271 6.87784 17.0396 7.06538C16.852 7.25292 16.5977 7.35827 16.3325 7.35827H3.41245L7.03912 10.9849Z" fill="white"/>
</svg>
